# xmcd
# Track frame offsets:
# 150
# 14819
# 30937
# 48103
# 65202
# 81697
# 99660
# 115767
# 132416
# 150683
# 169389
# 189125
# 203540
# 222391
#
# Disc length: 3271 seconds
# Revision: 0
# Processed by: cddbd v1.5.2PL0 Copyright (c) Steve Scherf et al.
# Submitted via: VisiTrax 2.11.2.271 - For more info visit www.synapsa.com
#
DISCID=c50cc50e
DTITLE=Millington, Col and Krystle Rae - Way It Was, The
DYEAR=2013
DGENRE=
TTITLE0=Silent Mind
TTITLE1=Belyando Blues
TTITLE2=L Shaped House
TTITLE3=Way It Was, The
TTITLE4=Morning Dew
TTITLE5=Hold  on to Love Tonight
TTITLE6=A Little Crazy
TTITLE7=Toughest Girl
TTITLE8=In Time
TTITLE9=Thoses Girls
TTITLE10=Reece
TTITLE11=Bethel
TTITLE12=These Reminders
TTITLE13=This Land
EXTD=
EXTT0=
EXTT1=
EXTT2=
EXTT3=
EXTT4=
EXTT5=
EXTT6=
EXTT7=
EXTT8=
EXTT9=
EXTT10=
EXTT11=
EXTT12=
EXTT13=
PLAYORDER=
